<svg xmlns="http://www.w3.org/2000/svg" viewBox="0 0 1200 630" width="1200" height="630">
  <defs>
    <radialGradient id="glow" cx="15%" cy="100%" r="65%">
      <stop offset="0%" stop-color="#1E3460" stop-opacity="0.7"/>
      <stop offset="100%" stop-color="#0B1525" stop-opacity="0"/>
    </radialGradient>
  </defs>
  <rect width="1200" height="630" fill="#0B1525"/>
  <rect width="1200" height="630" fill="url(#glow)"/>
  <rect x="32" y="32" width="1136" height="566" fill="none" stroke="#B8972A" stroke-width="0.75" stroke-opacity="0.35"/>
  <rect x="40" y="40" width="1120" height="550" fill="none" stroke="#B8972A" stroke-width="0.5" stroke-opacity="0.15"/>
  <line x1="32" y1="32" x2="72" y2="32" stroke="#B8972A" stroke-width="1.5" stroke-opacity="0.6"/>
  <line x1="32" y1="32" x2="32" y2="72" stroke="#B8972A" stroke-width="1.5" stroke-opacity="0.6"/>
  <line x1="1168" y1="32" x2="1128" y2="32" stroke="#B8972A" stroke-width="1.5" stroke-opacity="0.6"/>
  <line x1="1168" y1="32" x2="1168" y2="72" stroke="#B8972A" stroke-width="1.5" stroke-opacity="0.6"/>
  <line x1="32" y1="598" x2="72" y2="598" stroke="#B8972A" stroke-width="1.5" stroke-opacity="0.6"/>
  <line x1="32" y1="598" x2="32" y2="558" stroke="#B8972A" stroke-width="1.5" stroke-opacity="0.6"/>
  <line x1="1168" y1="598" x2="1128" y2="598" stroke="#B8972A" stroke-width="1.5" stroke-opacity="0.6"/>
  <line x1="1168" y1="598" x2="1168" y2="558" stroke="#B8972A" stroke-width="1.5" stroke-opacity="0.6"/>
  <circle cx="600" cy="148" r="46" fill="none" stroke="#B8972A" stroke-width="0.75" stroke-opacity="0.4"/>
  <circle cx="600" cy="148" r="36" fill="none" stroke="#B8972A" stroke-width="0.5" stroke-opacity="0.25"/>
  <text x="600" y="156" font-family="Georgia, 'Times New Roman', serif" font-size="18" font-style="italic" fill="#B8972A" fill-opacity="0.85" text-anchor="middle" letter-spacing="3">VMK</text>
  <line x1="460" y1="218" x2="530" y2="218" stroke="#B8972A" stroke-width="0.75" stroke-opacity="0.35"/>
  <text x="600" y="222" font-family="Georgia, 'Times New Roman', serif" font-size="11" fill="#B8972A" fill-opacity="0.6" text-anchor="middle" letter-spacing="5">COUNSELORS AT LAW</text>
  <line x1="670" y1="218" x2="740" y2="218" stroke="#B8972A" stroke-width="0.75" stroke-opacity="0.35"/>
  <text x="600" y="310" font-family="Georgia, 'Times New Roman', serif" font-size="52" font-weight="400" fill="white" fill-opacity="0.92" text-anchor="middle" letter-spacing="4">Ventura, Miesowitz</text>
  <text x="600" y="375" font-family="Georgia, 'Times New Roman', serif" font-size="52" font-weight="400" fill="white" fill-opacity="0.92" text-anchor="middle" letter-spacing="4">&amp; Keough</text>
  <text x="600" y="408" font-family="Georgia, 'Times New Roman', serif" font-size="13" fill="white" fill-opacity="0.28" text-anchor="middle" letter-spacing="8">P . C .</text>
  <rect x="596" y="432" width="8" height="8" fill="#B8972A" fill-opacity="0.5" transform="rotate(45 600 436)"/>
  <line x1="480" y1="436" x2="582" y2="436" stroke="#B8972A" stroke-width="0.75" stroke-opacity="0.35"/>
  <line x1="618" y1="436" x2="720" y2="436" stroke="#B8972A" stroke-width="0.75" stroke-opacity="0.35"/>
  <text x="600" y="474" font-family="Georgia, 'Times New Roman', serif" font-size="12" fill="#D4AF5A" fill-opacity="0.45" text-anchor="middle" letter-spacing="4">SUMMIT, NEW JERSEY  ·  EST. 1981</text>
  <rect x="32" y="543" width="1136" height="55" fill="#142240" fill-opacity="0.6"/>
  <text x="72" y="577" font-family="Georgia, 'Times New Roman', serif" font-size="12" fill="#D4AF5A" fill-opacity="0.6" letter-spacing="1">summitlawyers.net</text>
  <text x="1128" y="577" font-family="Georgia, 'Times New Roman', serif" font-size="12" fill="white" fill-opacity="0.25" text-anchor="end" letter-spacing="1">908.277.2410</text>
</svg>
